:FULLY-SPECIFIED
:FORCE-ALL-JOINTS-BE-3DOF
:DEGREES
3160
root 0.960693 16.9272 -33.362 6.06993 5.24792 -3.71767
lfemur -18.6883 -2.42255 -8.23628
ltibia 35.321 -0 0
lfoot -16.4157 7.58988 0.000132422
ltoes -40.6723 0 0
rfemur -19.4994 -0.242571 18.4925
rtibia 39.148 -0 0
rfoot -12.2067 -21.0869 0.000155074
rtoes -16.4007 0 0
lowerback 5.82042 1.51924 -0.518951
upperback -4.06935 2.12397 1.85418
thorax -7.6283 1.12759 1.97632
lowerneck -5.35916 -5.14188 -7.89516
upperneck 9.24928 -6.79355 5.98365
head 4.1136 -3.3402 2.74093
lclavicle 0 0 0
lhumerus -33.3347 -18.548 94.8799
lradius 51.6652 -0 0
lwrist -8.92419 0 0
lhand -34.047 29.5019 -3.62168e-05
lfingers 0 0 0
lthumb -7.2249 59.3578 -3.48318e-05
rclavicle 0 0 0
rhumerus -35.5233 14.2653 -81.4
rradius 51.013 -0 0
rwrist 1.42488 0 0
rhand -29.2133 -34.0909 0.000718656
rfingers 0 0 0
rthumb -2.55767 -64.0542 0.000682103
3161
root 0.969029 16.9306 -33.3583 6.0699 5.20634 -3.72863
lfemur -18.6537 -2.41944 -8.24117
ltibia 35.3013 -0 0
lfoot -16.4111 7.62641 0.000209556
ltoes -40.6521 0 0
rfemur -19.4775 -0.22869 18.4917
rtibia 39.108 -0 0
rfoot -12.1972 -21.066 0.000245402
rtoes -16.3977 0 0
lowerback 5.81126 1.52499 -0.522386
upperback -4.07951 2.13157 1.85509
thorax -7.63442 1.13165 1.97838
lowerneck -5.37171 -5.13391 -7.88896
upperneck 9.291 -6.78401 5.98227
head 4.12751 -3.33514 2.73965
lclavicle 0 0 0
lhumerus -33.2901 -18.417 94.8272
lradius 51.3687 -0 0
lwrist -9.04413 0 0
lhand -34.0496 29.5196 -5.73125e-05
lfingers 0 0 0
lthumb -7.22743 59.3754 -5.51208e-05
rclavicle 0 0 0
rhumerus -35.5147 14.1197 -81.3725
rradius 50.7355 -0 0
rwrist 1.46213 0 0
rhand -29.1386 -34.0786 0.00113727
rfingers 0 0 0
rthumb -2.48555 -64.0421 0.00107943
3162
root 0.976999 16.9339 -33.3546 6.06988 5.1601 -3.74083
lfemur -18.6151 -2.41598 -8.2466
ltibia 35.2793 -0 0
lfoot -16.4059 7.66703 0.000291862
ltoes -40.6296 0 0
rfemur -19.4532 -0.213253 18.4909
rtibia 39.0635 -0 0
rfoot -12.1867 -21.0428 0.000341788
rtoes -16.3944 0 0
lowerback 5.80107 1.53139 -0.526207
upperback -4.09081 2.14003 1.8561
thorax -7.64123 1.13617 1.98068
lowerneck -5.38565 -5.12505 -7.88207
upperneck 9.33741 -6.77339 5.98076
head 4.14298 -3.32952 2.73823
lclavicle 0 0 0
lhumerus -33.2407 -18.2712 94.7687
lradius 51.039 -0 0
lwrist -9.17751 0 0
lhand -34.0525 29.5393 -7.98228e-05
lfingers 0 0 0
lthumb -7.23024 59.395 -7.67703e-05
rclavicle 0 0 0
rhumerus -35.5052 13.9578 -81.3419
rradius 50.427 -0 0
rwrist 1.50355 0 0
rhand -29.0556 -34.0649 0.00158396
rfingers 0 0 0
rthumb -2.40535 -64.0286 0.0015034
3163
root 0.984613 16.937 -33.351 6.06986 5.10951 -3.75418
lfemur -18.5729 -2.41219 -8.25255
ltibia 35.2553 -0 0
lfoot -16.4003 7.71148 0.000377728
ltoes -40.605 0 0
rfemur -19.4266 -0.196362 18.49
rtibia 39.0148 -0 0
rfoot -12.1751 -21.0174 0.000442341
rtoes -16.3908 0 0
lowerback 5.78993 1.53839 -0.53039
upperback -4.10318 2.14928 1.8572
thorax -7.64869 1.14112 1.98319
lowerneck -5.40092 -5.11535 -7.87452
upperneck 9.38819 -6.76178 5.97911
head 4.15992 -3.32336 2.73668
lclavicle 0 0 0
lhumerus -33.1868 -18.1117 94.7049
lradius 50.6783 -0 0
lwrist -9.32345 0 0
lhand -34.0557 29.5608 -0.000103307
lfingers 0 0 0
lthumb -7.23332 59.4165 -9.9356e-05
rclavicle 0 0 0
rhumerus -35.495 13.7807 -81.3086
rradius 50.0894 -0 0
rwrist 1.54887 0 0
rhand -28.9647 -34.0499 0.00204998
rfingers 0 0 0
rthumb -2.31759 -64.0139 0.00194571
3164
root 0.991879 16.9399 -33.3473 6.06986 5.05487 -3.76859
lfemur -18.5273 -2.40809 -8.25897
ltibia 35.2294 -0 0
lfoot -16.3942 7.75948 0.000465544
ltoes -40.5784 0 0
rfemur -19.3979 -0.178118 18.4891
rtibia 38.9622 -0 0
rfoot -12.1626 -20.99 0.000545178
rtoes -16.3869 0 0
lowerback 5.77789 1.54596 -0.534908
upperback -4.11653 2.15927 1.85839
thorax -7.65673 1.14646 1.98591
lowerneck -5.4174 -5.10488 -7.86638
upperneck 9.44302 -6.74923 5.97734
head 4.1782 -3.31672 2.735
lclavicle 0 0 0
lhumerus -33.1289 -17.9393 94.6363
lradius 50.2887 -0 0
lwrist -9.48108 0 0
lhand -34.0592 29.5841 -0.000127323
lfingers 0 0 0
lthumb -7.23664 59.4396 -0.000122454
rclavicle 0 0 0
rhumerus -35.484 13.5894 -81.2726
rradius 49.7247 -0 0
rwrist 1.59782 0 0
rhand -28.8666 -34.0337 0.00252658
rfingers 0 0 0
rthumb -2.22281 -63.998 0.00239807
3165
root 0.998804 16.9428 -33.3437 6.06987 4.99648 -3.78399
lfemur -18.4787 -2.40371 -8.26582
ltibia 35.2016 -0 0
lfoot -16.3876 7.81077 0.000553727
ltoes -40.55 0 0
rfemur -19.3672 -0.158625 18.4881
rtibia 38.906 -0 0
rfoot -12.1492 -20.9607 0.000648444
rtoes -16.3827 0 0
lowerback 5.76503 1.55403 -0.539739
upperback -4.1308 2.16995 1.85965
thorax -7.66533 1.15217 1.9888
lowerneck -5.43501 -5.09368 -7.85769
upperneck 9.50161 -6.73582 5.97546
head 4.19774 -3.30962 2.73322
lclavicle 0 0 0
lhumerus -33.0673 -17.755 94.5632
lradius 49.8724 -0 0
lwrist -9.6495 0 0
lhand -34.0628 29.6089 -0.000151441
lfingers 0 0 0
lthumb -7.2402 59.4644 -0.000145649
rclavicle 0 0 0
rhumerus -35.4725 13.385 -81.2342
rradius 49.3351 -0 0
rwrist 1.65013 0 0
rhand -28.7617 -34.0164 0.00300518
rfingers 0 0 0
rthumb -2.12154 -63.981 0.00285232
3166
root 1.0054 16.9455 -33.3401 6.0699 4.93466 -3.80029
lfemur -18.4271 -2.39906 -8.27307
ltibia 35.1723 -0 0
lfoot -16.3807 7.86508 0.000640739
ltoes -40.5199 0 0
rfemur -19.3347 -0.137983 18.487
rtibia 38.8465 -0 0
rfoot -12.1351 -20.9297 0.00075034
rtoes -16.3783 0 0
lowerback 5.75141 1.56259 -0.544855
upperback -4.1459 2.18126 1.86099
thorax -7.67444 1.15821 1.99187
lowerneck -5.45365 -5.08183 -7.84848
upperneck 9.56365 -6.72162 5.97349
head 4.21842 -3.30209 2.73133
lclavicle 0 0 0
lhumerus -33.0025 -17.5598 94.4862
lradius 49.4317 -0 0
lwrist -9.82783 0 0
lhand -34.0667 29.6352 -0.000175238
lfingers 0 0 0
lthumb -7.24396 59.4906 -0.000168536
rclavicle 0 0 0
rhumerus -35.4604 13.1685 -81.1937
rradius 48.9226 -0 0
rwrist 1.70551 0 0
rhand -28.6507 -33.998 0.00347744
rfingers 0 0 0
rthumb -2.01431 -63.963 0.00330056
3167
root 1.01166 16.9481 -33.3366 6.06995 4.86971 -3.81741
lfemur -18.3729 -2.39417 -8.28069
ltibia 35.1414 -0 0
lfoot -16.3735 7.92214 0.00072511
ltoes -40.4883 0 0
rfemur -19.3006 -0.116295 18.4859
rtibia 38.784 -0 0
rfoot -12.1202 -20.8971 0.000849141
rtoes -16.3737 0 0
lowerback 5.7371 1.57157 -0.550233
upperback -4.16177 2.19314 1.86239
thorax -7.684 1.16456 1.9951
lowerneck -5.47323 -5.06937 -7.83882
upperneck 9.62883 -6.7067 5.97144
head 4.24016 -3.29419 2.72934
lclavicle 0 0 0
lhumerus -32.9347 -17.3546 94.4055
lradius 48.9686 -0 0
lwrist -10.0152 0 0
lhand -34.0708 29.6629 -0.000198312
lfingers 0 0 0
lthumb -7.24791 59.5181 -0.000190729
rclavicle 0 0 0
rhumerus -35.448 12.9411 -81.1512
rradius 48.4891 -0 0
rwrist 1.7637 0 0
rhand -28.534 -33.9788 0.00393536
rfingers 0 0 0
rthumb -1.90165 -63.9441 0.00373519
3168
root 1.01761 16.9506 -33.3331 6.07002 4.80194 -3.83528
lfemur -18.3164 -2.38906 -8.28863
ltibia 35.1092 -0 0
lfoot -16.3659 7.98168 0.000805449
ltoes -40.4553 0 0
rfemur -19.265 -0.0936643 18.4848
rtibia 38.7188 -0 0
rfoot -12.1047 -20.8631 0.000943222
rtoes -16.3689 0 0
lowerback 5.72216 1.58094 -0.555847
upperback -4.17834 2.20554 1.86385
thorax -7.69398 1.17119 1.99846
lowerneck -5.49366 -5.05636 -7.82873
upperneck 9.69683 -6.69112 5.96931
head 4.26283 -3.28595 2.72728
lclavicle 0 0 0
lhumerus -32.8644 -17.1404 94.3218
lradius 48.4853 -0 0
lwrist -10.2107 0 0
lhand -34.0751 29.6917 -0.000220284
lfingers 0 0 0
lthumb -7.25204 59.5468 -0.00021186
rclavicle 0 0 0
rhumerus -35.4351 12.7038 -81.107
rradius 48.0369 -0 0
rwrist 1.82441 0 0
rhand -28.4123 -33.9587 0.00437142
rfingers 0 0 0
rthumb -1.78409 -63.9243 0.00414906
3169
root 1.02325 16.9529 -33.3297 6.07012 4.73165 -3.85381
lfemur -18.2578 -2.38375 -8.29686
ltibia 35.0759 -0 0
lfoot -16.3581 8.04344 0.000880466
ltoes -40.4211 0 0
rfemur -19.228 -0.0701918 18.4836
rtibia 38.6511 -0 0
rfoot -12.0886 -20.8278 0.00103107
rtoes -16.3639 0 0
lowerback 5.70667 1.59066 -0.561672
upperback -4.19551 2.21839 1.86537
thorax -7.70434 1.17806 2.00194
lowerneck -5.51485 -5.04287 -7.81828
upperneck 9.76736 -6.67497 5.96713
head 4.28635 -3.27739 2.72514
lclavicle 0 0 0
lhumerus -32.7919 -16.9182 94.2353
lradius 47.9841 -0 0
lwrist -10.4135 0 0
lhand -34.0795 29.7216 -0.0002408
lfingers 0 0 0
lthumb -7.25632 59.5766 -0.000231592
rclavicle 0 0 0
rhumerus -35.422 12.4577 -81.0612
rradius 47.5678 -0 0
rwrist 1.88738 0 0
rhand -28.2861 -33.9379 0.00477858
rfingers 0 0 0
rthumb -1.66216 -63.9039 0.00453551
